# Blender 3.4.1
# www.blender.org
mtllib house.mtl
o Plane
v -3.063513 -0.596279 1.848577
v -3.063513 -0.596279 -2.160407
v 3.136317 -0.596279 -2.398505
v 3.136317 1.561358 -2.398505
v -3.063513 1.564530 1.848577
v -3.063513 1.564530 -2.160407
v 3.136317 -0.596279 0.446230
v 3.136317 1.561358 0.446230
v 3.921294 -0.596279 0.658574
v 3.921294 1.561358 0.658574
v 1.380861 -0.596279 0.445009
v 1.380861 1.561358 0.445009
v 1.380861 -0.596279 0.660317
v 1.380861 1.561358 0.660317
v 3.921294 -0.596279 1.848413
v 3.921294 1.561358 1.848413
v 3.136317 -0.596279 -1.391659
v 3.136317 1.561358 -1.391659
v 3.136317 -0.596279 -0.245626
v 3.136317 1.561358 -0.245626
v 3.136317 1.214273 -1.391659
v 3.136317 1.214273 -0.245626
v 3.137277 -0.596279 -1.391659
v 3.137277 -0.596279 -0.245626
v 3.137277 1.214273 -1.391659
v 3.137277 1.214273 -0.245626
v 3.244884 -0.596279 -0.245626
v 3.244884 -0.596279 -1.391659
v 3.244884 1.214273 -1.391659
v 3.244884 1.214273 -0.245626
v 0.324285 -0.596279 -2.160407
v 0.324285 1.562944 -2.160407
v 0.322721 -0.596279 -3.517486
v 0.322721 1.562151 -3.517486
v 1.295617 -0.596279 -3.517486
v 1.295617 1.561755 -3.517486
v 1.297095 -0.596279 -2.398505
v 1.297095 1.561556 -2.398505
v 1.435571 -0.596279 1.848495
v 1.435571 1.562944 1.848495
v 0.657824 -0.596279 1.848536
v 1.435571 1.377427 1.848495
v 0.657824 1.377824 1.848536
v 1.435571 1.562487 1.848495
v 0.657833 -0.596279 1.924747
v 1.435580 -0.596279 1.924706
v 1.435580 1.377427 1.924706
v 0.657833 1.377824 1.924747
v -2.100051 -0.596279 5.521755
v 1.536877 -0.596279 5.521755
v -2.100051 -0.596279 1.935383
v 1.536877 -0.596279 1.935383
v -2.100051 -0.596279 5.521755
v -2.100051 -0.596279 1.935383
v -2.100051 1.621039 5.521755
v -2.100051 1.621039 1.935383
v -2.100051 1.627057 5.521755
v 1.536877 1.627057 5.521755
v -2.100051 1.621799 1.935383
v 1.536877 1.621799 1.935383
v 0.656107 -0.596279 1.935383
v 0.656107 1.621799 1.935383
v 1.434779 -0.596279 1.935383
v 1.434779 1.621799 1.935383
v 0.656107 1.376867 1.935383
v 1.434779 1.376867 1.935383
v 3.245807 -0.596279 0.431113
v 5.825788 -0.596279 0.431113
v 3.245807 -0.596279 -2.389241
v 5.825788 -0.596279 -2.389241
v 3.245807 1.484473 0.431113
v 3.245807 1.484473 -2.389241
v 5.825788 1.582504 0.431113
v 5.825788 1.582504 -2.389241
v 3.245807 -0.596279 -1.392754
v 3.245807 1.484473 -1.392754
v 3.245807 -0.596279 -0.240667
v 3.245807 1.484473 -0.240667
v 3.245807 1.210874 -1.392754
v 3.245807 1.210874 -0.240667
vn 1.0000 -0.0000 -0.0000
vn -0.0000 -0.0000 1.0000
vn -1.0000 -0.0000 -0.0000
vn 0.0007 -0.0000 1.0000
vn 0.0007 -0.0000 -1.0000
vn -0.0000 -1.0000 -0.0000
vn -0.0000 -0.0000 -1.0000
vn -0.0000 1.0000 -0.0000
vn 1.0000 -0.0000 -0.0012
vn -1.0000 -0.0000 0.0013
vn -1.0000 -0.0000 0.0001
vn -0.0000 -0.0001 -1.0000
vn -0.0005 -1.0000 -0.0000
vn 1.0000 -0.0000 -0.0001
vn 0.0380 -0.9993 -0.0000
vn -0.0003 -1.0000 0.0007
vn -0.0001 -1.0000 -0.0000
vn -0.0009 -1.0000 0.0002
vn 0.0009 -1.0000 0.0007
vn -0.0004 -1.0000 0.0001
vn -0.0026 -1.0000 0.0004
vt 0.757992 0.411896
vt 0.016020 0.388060
vt 0.757992 0.388060
vt 0.757992 0.627786
vt 0.641629 0.834060
vt 0.231910 0.388060
vt 0.328826 0.967476
vt 0.898020 0.539068
vt 0.244732 0.054190
vt 0.328826 0.851284
vt 0.781828 0.539068
vt 0.389088 0.054187
vt 0.641629 0.411896
vt 0.641629 0.388060
vt 0.617793 0.388058
vt 0.641629 0.627786
vt 0.757992 0.834060
vt 0.401903 0.388054
vt 0.898020 0.692261
vt 0.641629 0.857896
vt 0.091538 0.054190
vt 0.781828 0.692261
vt 0.641629 0.974088
vt 0.542281 0.054190
vt 0.128110 0.988082
vt 0.545794 0.411894
vt 0.080103 0.011918
vt 0.011918 0.988082
vt 0.545794 0.528086
vt 0.553717 0.011918
vt 0.736163 0.857896
vt 0.921856 0.539068
vt 0.091604 0.148724
vt 0.736163 0.974088
vt 0.921856 0.655260
vt 0.542213 0.148723
vt 0.128110 0.851276
vt 0.933451 0.539068
vt 0.080009 0.148724
vt 0.011918 0.851276
vt 0.933451 0.655260
vt 0.553808 0.148723
vt 0.609868 0.411894
vt 0.016029 0.011918
vt 0.757992 0.011918
vt 0.609868 0.528086
vt 0.641800 0.011918
vt 0.617791 0.011919
vt 0.898020 0.593288
vt 0.190511 0.054190
vt 0.781828 0.593288
vt 0.898020 0.655004
vt 0.128796 0.054190
vt 0.781828 0.655004
vt 0.800519 0.593288
vt 0.800519 0.655004
vt 0.944600 0.187635
vt 0.950414 0.011918
vt 0.928790 0.363351
vt 0.950414 0.073634
vt 0.944619 0.097469
vt 0.944600 0.285136
vt 0.944619 0.159185
vt 0.928790 0.460852
vt 0.922995 0.363351
vt 0.944619 0.073634
vt 0.950395 0.187635
vt 0.944619 0.011918
vt 0.950414 0.097469
vt 0.950395 0.285136
vt 0.950414 0.159185
vt 0.922995 0.460852
vt 0.641629 0.651622
vt 0.301966 0.528173
vt 0.231910 0.205622
vt 0.757907 0.651622
vt 0.301966 0.411896
vt 0.401907 0.205618
vt 0.228885 0.528173
vt 0.970107 0.972381
vt 0.304990 0.205706
vt 0.228885 0.411939
vt 0.970107 0.856146
vt 0.328826 0.205701
vt 0.917716 0.972381
vt 0.977974 0.832310
vt 0.304990 0.153315
vt 0.917716 0.856167
vt 0.977974 0.716097
vt 0.328827 0.153309
vt 0.427871 0.967476
vt 0.917716 0.832310
vt 0.244732 0.153235
vt 0.427871 0.851274
vt 0.917716 0.716108
vt 0.389086 0.153231
vt 0.757992 0.145778
vt 0.300886 0.761728
vt 0.016024 0.145778
vt 0.641715 0.145778
vt 0.617793 0.145778
vt 0.757992 0.187661
vt 0.304990 0.631584
vt 0.016022 0.187661
vt 0.300886 0.868015
vt 0.651705 0.145778
vt 0.549898 0.593804
vt 0.651684 0.187661
vt 0.549898 0.551922
vt 0.304990 0.737892
vt 0.641739 0.145778
vt 0.300886 0.631584
vt 0.011918 0.187660
vt 0.304990 0.761728
vt 0.011920 0.145777
vt 0.304990 0.868015
vt 0.545794 0.593805
vt 0.545794 0.551922
vt 0.300886 0.737892
vt 0.011918 0.607750
vt 0.228885 0.552009
vt 0.131648 0.827440
vt 0.011918 0.411896
vt 0.131648 0.631586
vt 0.275214 0.824718
vt 0.205050 0.607750
vt 0.228885 0.552009
vt 0.448273 0.631584
vt 0.205050 0.411896
vt 0.448273 0.827438
vt 0.275214 0.631586
vt 0.228885 0.552009
vt 0.591515 0.631584
vt 0.228885 0.552009
vt 0.591515 0.824716
vt 0.472109 0.631584
vt 0.328826 0.411894
vt 0.472109 0.824716
vt 0.521958 0.411894
vt 0.011918 0.827440
vt 0.011918 0.631586
vt 0.155484 0.824718
vt 0.328826 0.607748
vt 0.328826 0.631584
vt 0.328826 0.827438
vt 0.155767 0.631586
vt 0.521958 0.607747
vt 0.205050 0.459327
vt 0.448273 0.780007
vt 0.328826 0.780007
vt 0.205050 0.417394
vt 0.448273 0.821940
vt 0.328826 0.821940
vt 0.342016 0.780007
vt 0.342016 0.821940
vt 0.920763 0.339516
vt 0.472109 0.848551
vt 0.893880 0.716097
vt 0.781828 0.339516
vt 0.899159 0.515232
vt 0.472109 0.987487
vt 0.920763 0.187635
vt 0.893880 0.867977
vt 0.272815 0.848554
vt 0.781828 0.187635
vt 0.899159 0.363352
vt 0.272815 0.987489
vt 0.584160 0.848551
vt 0.781828 0.163798
vt 0.781828 0.716097
vt 0.781828 0.867977
vt 0.160763 0.848554
vt 0.781828 0.011918
vt 0.781828 0.515232
vt 0.589440 0.987487
vt 0.920783 0.163799
vt 0.781828 0.363352
vt 0.155484 0.987489
vt 0.920783 0.011919
vt 0.920763 0.241298
vt 0.893880 0.814315
vt 0.781828 0.065580
vt 0.781828 0.814315
vt 0.920763 0.303339
vt 0.893880 0.752273
vt 0.781828 0.127622
vt 0.781828 0.752273
vt 0.796562 0.814315
vt 0.796562 0.752273
s 0
usemtl room1_MAT
f 1/1/1 2/4/1 6/16/1 5/13/1
f 37/91/2 3/7/2 4/10/2 38/94/2
f 19/52/3 7/19/3 8/22/3 20/54/3 22/56/3
f 13/37/4 9/25/4 10/28/4 14/40/4
f 7/20/5 11/31/5 12/34/5 8/23/5
f 11/32/3 13/38/3 14/41/3 12/35/3
f 9/26/3 15/43/3 16/46/3 10/29/3
f 3/8/3 17/49/3 21/55/3 18/51/3 4/11/3
f 21/55/3 22/56/3 20/54/3 18/51/3
f 26/63/6 25/61/6 29/69/6 30/71/6
f 25/62/2 23/57/2 28/67/2 29/70/2
f 24/59/7 26/64/7 30/72/7 27/65/7
f 23/58/8 24/60/8 27/66/8 28/68/8
f 2/5/2 31/73/2 32/76/2 6/17/2
f 31/74/9 33/79/9 34/82/9 32/77/9
f 33/80/2 35/85/2 36/88/2 34/83/2
f 35/86/10 37/92/10 38/95/10 36/89/10
f 2/6/8 1/2/8 41/104/8 39/99/8 15/44/8 9/27/8 13/39/8 11/33/8 7/21/8 19/53/8 17/50/8 3/9/8 37/93/8 35/87/8 33/81/8 31/75/8
f 16/47/7 15/45/7 39/97/7 42/106/7 44/111/7
f 42/105/11 39/98/11 46/114/11 47/116/11
f 1/3/7 5/14/7 43/108/7 41/102/7
f 40/100/7 16/47/7 44/111/7
f 42/106/12 43/108/12 5/14/12 44/111/12
f 43/109/13 42/107/13 47/117/13 48/118/13
f 41/103/14 43/110/14 48/119/14 45/112/14
f 39/99/8 41/104/8 45/113/8 46/115/8
f 49/120/8 50/123/8 52/129/8 63/151/8 61/148/8 51/126/8
f 49/121/8 51/127/8 54/134/8 53/132/8
f 53/133/1 54/135/1 56/138/1 55/136/1
f 50/124/7 49/122/7 57/140/7 58/141/7
f 63/152/2 52/130/2 60/145/2 64/153/2 66/155/2
f 52/131/3 50/125/3 58/142/3 60/146/3
f 51/128/2 61/149/2 65/154/2 62/150/2 59/144/2
f 65/154/2 66/155/2 64/153/2 62/150/2
f 67/156/8 68/159/8 70/165/8 69/162/8 75/180/8 77/184/8
f 75/181/1 69/163/1 72/171/1 76/183/1 79/188/1
f 70/166/3 68/160/3 73/174/3 74/177/3
f 68/161/7 67/157/7 71/168/7 73/175/7
f 70/167/2 74/178/2 72/172/2 69/164/2
f 72/173/15 74/179/15 73/176/15 71/169/15 78/186/15 76/182/15
f 16/48/16 40/101/16 14/42/16 10/30/16
f 12/36/17 38/96/17 4/12/17 8/24/17
f 34/84/18 36/90/18 38/96/18 32/78/18
f 56/139/19 60/147/19 58/143/19 55/137/19
f 80/189/1 79/188/1 76/183/1 78/187/1
f 67/158/1 77/185/1 80/189/1 78/187/1 71/170/1
f 5/15/20 6/18/20 32/78/20 40/101/20
f 12/36/21 14/42/21 40/101/21 32/78/21 38/96/21
