solid Exported from Blender-3.4.1
facet normal 0.994467 -0.104958 0.004346
outer loop
vertex -2.628705 1.314023 -1.334572
vertex -2.207884 5.300847 -1.344657
vertex -2.216653 5.307239 0.816125
endloop
endfacet
facet normal 0.994467 -0.104958 0.004346
outer loop
vertex -2.628705 1.314023 -1.334572
vertex -2.216653 5.307239 0.816125
vertex -2.637475 1.320415 0.826210
endloop
endfacet
facet normal -0.104969 -0.994472 0.002515
outer loop
vertex 2.153591 5.079947 -1.326303
vertex 3.982637 4.886907 -1.318309
vertex 3.973880 4.893289 0.839301
endloop
endfacet
facet normal -0.104969 -0.994472 0.002515
outer loop
vertex 2.153591 5.079947 -1.326303
vertex 3.973880 4.893289 0.839301
vertex 2.144833 5.086330 0.831505
endloop
endfacet
facet normal -0.994467 0.104958 -0.004346
outer loop
vertex 3.749302 2.751283 0.497636
vertex 3.756650 2.745928 -1.312893
vertex 3.684026 2.057896 -1.311152
endloop
endfacet
facet normal -0.994467 0.104956 -0.004346
outer loop
vertex 3.684026 2.057896 -1.311152
vertex 3.675270 2.064279 0.846457
vertex 3.747893 2.752310 0.844716
endloop
endfacet
facet normal -0.994467 0.104959 -0.004346
outer loop
vertex 3.684026 2.057896 -1.311152
vertex 3.747893 2.752310 0.844716
vertex 3.749302 2.751283 0.497636
endloop
endfacet
facet normal -0.104287 -0.994544 0.002519
outer loop
vertex 1.915810 2.029242 -1.318244
vertex 4.442369 1.764336 -1.307206
vertex 4.433613 1.770718 0.850403
endloop
endfacet
facet normal -0.104287 -0.994544 0.002519
outer loop
vertex 1.915810 2.029242 -1.318244
vertex 4.433613 1.770718 0.850403
vertex 1.907053 2.035624 0.839365
endloop
endfacet
facet normal 0.105662 0.994399 -0.002513
outer loop
vertex 3.684026 2.057896 -1.311152
vertex 1.938411 2.243360 -1.318786
vertex 1.929654 2.249743 0.838824
endloop
endfacet
facet normal 0.105661 0.994399 -0.002513
outer loop
vertex 3.684026 2.057896 -1.311152
vertex 1.929654 2.249743 0.838824
vertex 3.675270 2.064279 0.846457
endloop
endfacet
facet normal -0.994467 0.104961 -0.004346
outer loop
vertex 1.938411 2.243360 -1.318786
vertex 1.915810 2.029242 -1.318244
vertex 1.907053 2.035624 0.839365
endloop
endfacet
facet normal -0.994467 0.104957 -0.004346
outer loop
vertex 1.938411 2.243360 -1.318786
vertex 1.907053 2.035624 0.839365
vertex 1.929654 2.249743 0.838824
endloop
endfacet
facet normal -0.994467 0.104958 -0.004347
outer loop
vertex 4.442369 1.764336 -1.307206
vertex 4.317472 0.581074 -1.304213
vertex 4.308716 0.587456 0.853396
endloop
endfacet
facet normal -0.994467 0.104958 -0.004346
outer loop
vertex 4.442369 1.764336 -1.307206
vertex 4.308716 0.587456 0.853396
vertex 4.433613 1.770718 0.850403
endloop
endfacet
facet normal -0.994467 0.104959 -0.004346
outer loop
vertex 3.973880 4.893289 0.839301
vertex 3.982637 4.886907 -1.318309
vertex 3.876948 3.885626 -1.315776
endloop
endfacet
facet normal -0.994467 0.104958 -0.004346
outer loop
vertex 3.869601 3.890982 0.494753
vertex 3.868192 3.892008 0.841834
vertex 3.973880 4.893289 0.839301
endloop
endfacet
facet normal -0.994467 0.104958 -0.004346
outer loop
vertex 3.876948 3.885626 -1.315776
vertex 3.869601 3.890982 0.494753
vertex 3.973880 4.893289 0.839301
endloop
endfacet
facet normal -0.994467 0.104958 -0.004346
outer loop
vertex 3.869601 3.890982 0.494753
vertex 3.749302 2.751283 0.497636
vertex 3.747893 2.752310 0.844716
endloop
endfacet
facet normal -0.994467 0.104959 -0.004346
outer loop
vertex 3.869601 3.890982 0.494753
vertex 3.747893 2.752310 0.844716
vertex 3.868192 3.892008 0.841834
endloop
endfacet
facet normal 0.004059 -0.002958 -0.999987
outer loop
vertex 3.750256 2.751182 0.497641
vertex 3.870555 3.890881 0.494758
vertex 3.977566 3.879587 0.495225
endloop
endfacet
facet normal 0.004058 -0.002958 -0.999987
outer loop
vertex 3.750256 2.751182 0.497641
vertex 3.977566 3.879587 0.495225
vertex 3.857268 2.739888 0.498108
endloop
endfacet
facet normal -0.104968 -0.994472 0.002516
outer loop
vertex 3.870555 3.890881 0.494758
vertex 3.877903 3.885525 -1.315772
vertex 3.984914 3.874231 -1.315304
endloop
endfacet
facet normal -0.104969 -0.994472 0.002516
outer loop
vertex 3.870555 3.890881 0.494758
vertex 3.984914 3.874231 -1.315304
vertex 3.977566 3.879587 0.495225
endloop
endfacet
facet normal 0.104969 0.994472 -0.002516
outer loop
vertex 3.757604 2.745827 -1.312889
vertex 3.750256 2.751182 0.497641
vertex 3.857268 2.739888 0.498108
endloop
endfacet
facet normal 0.104969 0.994472 -0.002516
outer loop
vertex 3.757604 2.745827 -1.312889
vertex 3.857268 2.739888 0.498108
vertex 3.864615 2.734533 -1.312421
endloop
endfacet
facet normal -0.004059 0.002958 0.999987
outer loop
vertex 3.877903 3.885525 -1.315772
vertex 3.757604 2.745827 -1.312889
vertex 3.864615 2.734533 -1.312421
endloop
endfacet
facet normal -0.004058 0.002958 0.999987
outer loop
vertex 3.877903 3.885525 -1.315772
vertex 3.864615 2.734533 -1.312421
vertex 3.984914 3.874231 -1.315304
endloop
endfacet
facet normal -0.104970 -0.994472 0.002515
outer loop
vertex -2.207884 5.300847 -1.344657
vertex 1.161169 4.945271 -1.329932
vertex 1.152406 4.951657 0.829264
endloop
endfacet
facet normal -0.104970 -0.994472 0.002516
outer loop
vertex -2.207884 5.300847 -1.344657
vertex 1.152406 4.951657 0.829264
vertex -2.216653 5.307239 0.816125
endloop
endfacet
facet normal 0.994587 -0.103812 0.004343
outer loop
vertex 1.161169 4.945271 -1.329932
vertex 1.302066 6.295012 -1.333353
vertex 1.293307 6.301396 0.825050
endloop
endfacet
facet normal 0.994587 -0.103812 0.004344
outer loop
vertex 1.161169 4.945271 -1.329932
vertex 1.293307 6.301396 0.825050
vertex 1.152406 4.951657 0.829264
endloop
endfacet
facet normal -0.104970 -0.994472 0.002516
outer loop
vertex 1.302066 6.295012 -1.333353
vertex 2.269579 6.192898 -1.329124
vertex 2.260821 6.199282 0.828882
endloop
endfacet
facet normal -0.104969 -0.994472 0.002516
outer loop
vertex 1.302066 6.295012 -1.333353
vertex 2.260821 6.199282 0.828882
vertex 1.293307 6.301396 0.825050
endloop
endfacet
facet normal -0.994605 0.103644 -0.004343
outer loop
vertex 2.269579 6.192898 -1.329124
vertex 2.153591 5.079947 -1.326303
vertex 2.144833 5.086330 0.831505
endloop
endfacet
facet normal -0.994605 0.103645 -0.004343
outer loop
vertex 2.269579 6.192898 -1.329124
vertex 2.144833 5.086330 0.831505
vertex 2.260821 6.199282 0.828882
endloop
endfacet
facet normal -0.004058 0.002958 0.999987
outer loop
vertex 1.161169 4.945271 -1.329932
vertex -2.207884 5.300847 -1.344657
vertex -2.628705 1.314023 -1.334572
endloop
endfacet
facet normal -0.004241 0.004413 0.999981
outer loop
vertex -2.628705 1.314023 -1.334572
vertex 1.072047 0.923480 -1.318397
vertex 1.845494 0.841890 -1.315017
endloop
endfacet
facet normal -0.004058 0.002958 0.999987
outer loop
vertex 1.845494 0.841890 -1.315017
vertex 4.317472 0.581074 -1.304213
vertex 4.442369 1.764336 -1.307206
endloop
endfacet
facet normal -0.004058 0.002958 0.999987
outer loop
vertex 1.845494 0.841890 -1.315017
vertex 4.442369 1.764336 -1.307206
vertex 1.915810 2.029242 -1.318244
endloop
endfacet
facet normal -0.004058 0.002958 0.999987
outer loop
vertex 1.161169 4.945271 -1.329932
vertex -2.628705 1.314023 -1.334572
vertex 1.845494 0.841890 -1.315017
endloop
endfacet
facet normal -0.004058 0.002958 0.999987
outer loop
vertex 2.269579 6.192898 -1.329124
vertex 1.302066 6.295012 -1.333353
vertex 1.161169 4.945271 -1.329932
endloop
endfacet
facet normal -0.004058 0.002958 0.999987
outer loop
vertex 3.876948 3.885626 -1.315776
vertex 3.982637 4.886907 -1.318309
vertex 2.153591 5.079947 -1.326303
endloop
endfacet
facet normal -0.004058 0.002958 0.999987
outer loop
vertex 2.153591 5.079947 -1.326303
vertex 2.269579 6.192898 -1.329124
vertex 1.161169 4.945271 -1.329932
endloop
endfacet
facet normal -0.004059 0.002958 0.999987
outer loop
vertex 1.161169 4.945271 -1.329932
vertex 1.845494 0.841890 -1.315017
vertex 1.915810 2.029242 -1.318244
endloop
endfacet
facet normal -0.004059 0.002958 0.999987
outer loop
vertex 1.938411 2.243360 -1.318786
vertex 3.684026 2.057896 -1.311152
vertex 3.756650 2.745928 -1.312893
endloop
endfacet
facet normal -0.004059 0.002958 0.999987
outer loop
vertex 1.161169 4.945271 -1.329932
vertex 1.915810 2.029242 -1.318244
vertex 1.938411 2.243360 -1.318786
endloop
endfacet
facet normal -0.004058 0.002958 0.999987
outer loop
vertex 3.876948 3.885626 -1.315776
vertex 2.153591 5.079947 -1.326303
vertex 1.161169 4.945271 -1.329932
endloop
endfacet
facet normal -0.004058 0.002958 0.999987
outer loop
vertex 1.938411 2.243360 -1.318786
vertex 3.756650 2.745928 -1.312893
vertex 3.876948 3.885626 -1.315776
endloop
endfacet
facet normal -0.004058 0.002958 0.999987
outer loop
vertex 1.938411 2.243360 -1.318786
vertex 3.876948 3.885626 -1.315776
vertex 1.161169 4.945271 -1.329932
endloop
endfacet
facet normal 0.104937 0.994476 -0.002516
outer loop
vertex 1.836733 0.848275 0.843721
vertex 4.308716 0.587456 0.853396
vertex 4.317472 0.581074 -1.304213
endloop
endfacet
facet normal 0.104937 0.994476 -0.002516
outer loop
vertex 4.317472 0.581074 -1.304213
vertex 1.845494 0.841890 -1.315017
vertex 1.837484 0.847728 0.658664
endloop
endfacet
facet normal 0.104937 0.994476 -0.002515
outer loop
vertex 4.317472 0.581074 -1.304213
vertex 1.837484 0.847728 0.658664
vertex 1.836733 0.848275 0.843721
endloop
endfacet
facet normal -0.994479 0.104849 -0.004346
outer loop
vertex 1.837484 0.847728 0.658664
vertex 1.845494 0.841890 -1.315017
vertex 1.837503 0.766099 -1.314825
endloop
endfacet
facet normal -0.994479 0.104841 -0.004346
outer loop
vertex 1.837484 0.847728 0.658664
vertex 1.837503 0.766099 -1.314825
vertex 1.829493 0.771937 0.658856
endloop
endfacet
facet normal 0.104959 0.994473 -0.002516
outer loop
vertex -2.628705 1.314023 -1.334572
vertex -2.637475 1.320415 0.826210
vertex 1.064035 0.929319 0.655680
endloop
endfacet
facet normal 0.104959 0.994473 -0.002516
outer loop
vertex -2.628705 1.314023 -1.334572
vertex 1.064035 0.929319 0.655680
vertex 1.072047 0.923480 -1.318397
endloop
endfacet
facet normal 0.104923 0.994477 -0.002516
outer loop
vertex 1.836731 0.848276 0.844179
vertex 4.308716 0.587456 0.853396
vertex 1.836733 0.848275 0.843721
endloop
endfacet
facet normal 0.104921 0.994475 -0.003357
outer loop
vertex 1.837484 0.847728 0.658664
vertex 1.064035 0.929319 0.655680
vertex -2.637475 1.320415 0.826210
endloop
endfacet
facet normal 0.104951 0.994474 -0.002516
outer loop
vertex 1.837484 0.847728 0.658664
vertex -2.637475 1.320415 0.826210
vertex 1.836733 0.848275 0.843721
endloop
endfacet
facet normal 0.003552 -0.002904 -0.999989
outer loop
vertex 1.064035 0.929319 0.655680
vertex 1.837484 0.847728 0.658664
vertex 1.829493 0.771937 0.658856
endloop
endfacet
facet normal 0.003551 -0.002905 -0.999990
outer loop
vertex 1.064035 0.929319 0.655680
vertex 1.829493 0.771937 0.658856
vertex 1.056044 0.853529 0.655872
endloop
endfacet
facet normal 0.994479 -0.104845 0.004346
outer loop
vertex 1.072047 0.923480 -1.318397
vertex 1.064035 0.929319 0.655680
vertex 1.056044 0.853529 0.655872
endloop
endfacet
facet normal 0.994479 -0.104842 0.004346
outer loop
vertex 1.072047 0.923480 -1.318397
vertex 1.056044 0.853529 0.655872
vertex 1.064055 0.847689 -1.318206
endloop
endfacet
facet normal -0.004059 0.002957 0.999987
outer loop
vertex 1.845494 0.841890 -1.315017
vertex 1.072047 0.923480 -1.318397
vertex 1.064055 0.847689 -1.318206
endloop
endfacet
facet normal -0.004058 0.002959 0.999987
outer loop
vertex 1.845494 0.841890 -1.315017
vertex 1.064055 0.847689 -1.318206
vertex 1.837503 0.766099 -1.314825
endloop
endfacet
facet normal -0.004058 0.002958 0.999987
outer loop
vertex -1.679687 1.126574 -1.330166
vertex -2.056147 -2.439974 -1.321144
vertex 1.560659 -2.821699 -1.305336
endloop
endfacet
facet normal -0.004054 0.002958 0.999987
outer loop
vertex 1.560659 -2.821699 -1.305336
vertex 1.937119 0.744849 -1.314358
vertex 1.835587 0.755565 -1.314802
endloop
endfacet
facet normal 0.000000 -1.000000 0.000000
outer loop
vertex 1.835587 0.755565 -1.314802
vertex 1.061222 0.837293 -1.318186
vertex -1.679687 1.126574 -1.330166
endloop
endfacet
facet normal -0.004059 0.002958 0.999987
outer loop
vertex 1.560659 -2.821699 -1.305336
vertex 1.835587 0.755565 -1.314802
vertex -1.679687 1.126574 -1.330166
endloop
endfacet
facet normal 0.000000 0.000000 0.000000
outer loop
vertex -2.056147 -2.439974 -1.321144
vertex -1.679687 1.126574 -1.330166
vertex -1.679687 1.126574 -1.330166
endloop
endfacet
facet normal 0.000000 0.000000 0.000000
outer loop
vertex -2.056147 -2.439974 -1.321144
vertex -1.679687 1.126574 -1.330166
vertex -2.056147 -2.439974 -1.321144
endloop
endfacet
facet normal 0.994467 -0.104958 0.004346
outer loop
vertex -2.056147 -2.439974 -1.321144
vertex -1.679687 1.126574 -1.330166
vertex -1.688685 1.133133 0.887124
endloop
endfacet
facet normal 0.994467 -0.104958 0.004346
outer loop
vertex -2.056147 -2.439974 -1.321144
vertex -1.688685 1.133133 0.887124
vertex -2.065145 -2.433415 0.896146
endloop
endfacet
facet normal 0.104970 0.994472 -0.002516
outer loop
vertex 1.560659 -2.821699 -1.305336
vertex -2.056147 -2.439974 -1.321144
vertex -2.065170 -2.433397 0.902164
endloop
endfacet
facet normal 0.104970 0.994472 -0.002516
outer loop
vertex 1.560659 -2.821699 -1.305336
vertex -2.065170 -2.433397 0.902164
vertex 1.551636 -2.815122 0.917971
endloop
endfacet
facet normal -0.104970 -0.994472 0.002516
outer loop
vertex 1.827579 0.761402 0.658319
vertex 1.835587 0.755565 -1.314802
vertex 1.937119 0.744849 -1.314358
endloop
endfacet
facet normal -0.104970 -0.994472 0.002516
outer loop
vertex 1.937119 0.744849 -1.314358
vertex 1.928117 0.751410 0.903691
vertex 1.826585 0.762126 0.903247
endloop
endfacet
facet normal -0.104969 -0.994472 0.002516
outer loop
vertex 1.937119 0.744849 -1.314358
vertex 1.826585 0.762126 0.903247
vertex 1.827579 0.761402 0.658319
endloop
endfacet
facet normal -0.994467 0.104958 -0.004346
outer loop
vertex 1.937119 0.744849 -1.314358
vertex 1.560659 -2.821699 -1.305336
vertex 1.551636 -2.815122 0.917971
endloop
endfacet
facet normal -0.994467 0.104958 -0.004346
outer loop
vertex 1.937119 0.744849 -1.314358
vertex 1.551636 -2.815122 0.917971
vertex 1.928117 0.751410 0.903691
endloop
endfacet
facet normal -0.104970 -0.994472 0.002516
outer loop
vertex -1.688688 1.133135 0.887883
vertex -1.679687 1.126574 -1.330166
vertex 1.061222 0.837293 -1.318186
endloop
endfacet
facet normal -0.104970 -0.994472 0.002516
outer loop
vertex 1.053214 0.843130 0.654935
vertex 1.052220 0.843854 0.899863
vertex -1.688688 1.133135 0.887883
endloop
endfacet
facet normal -0.104970 -0.994472 0.002516
outer loop
vertex 1.061222 0.837293 -1.318186
vertex 1.053214 0.843130 0.654935
vertex -1.688688 1.133135 0.887883
endloop
endfacet
facet normal -0.104970 -0.994472 0.002515
outer loop
vertex 1.053214 0.843130 0.654935
vertex 1.827579 0.761402 0.658319
vertex 1.826585 0.762126 0.903247
endloop
endfacet
facet normal -0.104970 -0.994472 0.002516
outer loop
vertex 1.053214 0.843130 0.654935
vertex 1.826585 0.762126 0.903247
vertex 1.052220 0.843854 0.899863
endloop
endfacet
facet normal -0.004058 0.002958 0.999987
outer loop
vertex 3.865013 2.729505 -1.312405
vertex 3.794497 2.061437 -1.310715
vertex 6.360203 1.790648 -1.299501
endloop
endfacet
facet normal -0.004058 0.002958 0.999987
outer loop
vertex 6.360203 1.790648 -1.299501
vertex 6.656255 4.595412 -1.306596
vertex 4.090549 4.866202 -1.317809
endloop
endfacet
facet normal 0.554679 0.008667 0.832019
outer loop
vertex 4.090549 4.866202 -1.317809
vertex 3.985947 3.875223 -1.315303
vertex 3.865013 2.729505 -1.312405
endloop
endfacet
facet normal -0.004058 0.002958 0.999987
outer loop
vertex 6.360203 1.790648 -1.299501
vertex 4.090549 4.866202 -1.317809
vertex 3.865013 2.729505 -1.312405
endloop
endfacet
facet normal 0.994467 -0.104959 0.004346
outer loop
vertex 3.978613 3.880569 0.491827
vertex 3.985947 3.875223 -1.315303
vertex 4.090549 4.866202 -1.317809
endloop
endfacet
facet normal 0.994467 -0.104958 0.004347
outer loop
vertex 4.090549 4.866202 -1.317809
vertex 4.082104 4.872356 0.762916
vertex 3.977503 3.881378 0.765422
endloop
endfacet
facet normal 0.994467 -0.104962 0.004347
outer loop
vertex 4.090549 4.866202 -1.317809
vertex 3.977503 3.881378 0.765422
vertex 3.978613 3.880569 0.491827
endloop
endfacet
facet normal -0.994467 0.104958 -0.004346
outer loop
vertex 6.656255 4.595412 -1.306596
vertex 6.360203 1.790648 -1.299501
vertex 6.351361 1.797092 0.879255
endloop
endfacet
facet normal -0.994467 0.104958 -0.004346
outer loop
vertex 6.656255 4.595412 -1.306596
vertex 6.351361 1.797092 0.879255
vertex 6.647412 4.601856 0.872160
endloop
endfacet
facet normal 0.104970 0.994472 -0.002516
outer loop
vertex 6.360203 1.790648 -1.299501
vertex 3.794497 2.061437 -1.310715
vertex 3.786052 2.067592 0.770011
endloop
endfacet
facet normal 0.104970 0.994472 -0.002516
outer loop
vertex 6.360203 1.790648 -1.299501
vertex 3.786052 2.067592 0.770011
vertex 6.351361 1.797092 0.879255
endloop
endfacet
facet normal -0.104970 -0.994472 0.002516
outer loop
vertex 6.656255 4.595412 -1.306596
vertex 6.647412 4.601856 0.872160
vertex 4.082104 4.872356 0.762916
endloop
endfacet
facet normal -0.104970 -0.994472 0.002515
outer loop
vertex 6.656255 4.595412 -1.306596
vertex 4.082104 4.872356 0.762916
vertex 4.090549 4.866202 -1.317809
endloop
endfacet
facet normal 0.041815 -0.006941 -0.999101
outer loop
vertex 3.977503 3.881378 0.765422
vertex 4.082104 4.872356 0.762916
vertex 6.647412 4.601856 0.872160
endloop
endfacet
facet normal 0.041815 -0.006941 -0.999101
outer loop
vertex 6.647412 4.601856 0.872160
vertex 6.351361 1.797092 0.879255
vertex 3.786052 2.067592 0.770011
endloop
endfacet
facet normal -0.894078 0.027940 0.447039
outer loop
vertex 3.786052 2.067592 0.770011
vertex 3.856569 2.735659 0.768321
vertex 3.977503 3.881378 0.765422
endloop
endfacet
facet normal 0.041815 -0.006941 -0.999101
outer loop
vertex 6.647412 4.601856 0.872160
vertex 3.786052 2.067592 0.770011
vertex 3.977503 3.881378 0.765422
endloop
endfacet
facet normal 0.003281 -0.004248 -0.999986
outer loop
vertex 4.308716 0.587456 0.853396
vertex 1.836731 0.848276 0.844179
vertex 1.907053 2.035624 0.839365
endloop
endfacet
facet normal 0.004058 -0.002958 -0.999987
outer loop
vertex 4.308716 0.587456 0.853396
vertex 1.907053 2.035624 0.839365
vertex 4.433613 1.770718 0.850403
endloop
endfacet
facet normal 0.003958 -0.002880 -0.999988
outer loop
vertex 1.929654 2.249743 0.838824
vertex 2.144833 5.086330 0.831505
vertex 3.973880 4.893289 0.839301
endloop
endfacet
facet normal 0.004058 -0.002958 -0.999987
outer loop
vertex 1.929654 2.249743 0.838824
vertex 3.973880 4.893289 0.839301
vertex 3.675270 2.064279 0.846457
endloop
endfacet
facet normal 0.003672 -0.002739 -0.999989
outer loop
vertex 1.293307 6.301396 0.825050
vertex 2.260821 6.199282 0.828882
vertex 2.144833 5.086330 0.831505
endloop
endfacet
facet normal 0.002721 -0.003406 -0.999991
outer loop
vertex 1.293307 6.301396 0.825050
vertex 2.144833 5.086330 0.831505
vertex 1.152406 4.951657 0.829264
endloop
endfacet
facet normal 0.004112 -0.004438 -0.999982
outer loop
vertex -1.688685 1.133133 0.887124
vertex 1.928117 0.751410 0.903691
vertex 1.551636 -2.815122 0.917971
endloop
endfacet
facet normal 0.005704 -0.003132 -0.999979
outer loop
vertex -1.688685 1.133133 0.887124
vertex 1.551636 -2.815122 0.917971
vertex -2.065145 -2.433415 0.896146
endloop
endfacet
facet normal 0.994467 -0.104959 0.004347
outer loop
vertex 3.857679 2.734850 0.494726
vertex 3.978613 3.880569 0.491827
vertex 3.977503 3.881378 0.765422
endloop
endfacet
facet normal 0.994467 -0.104958 0.004347
outer loop
vertex 3.857679 2.734850 0.494726
vertex 3.977503 3.881378 0.765422
vertex 3.856569 2.735659 0.768321
endloop
endfacet
facet normal 0.994467 -0.104958 0.004346
outer loop
vertex 3.786052 2.067592 0.770011
vertex 3.794497 2.061437 -1.310715
vertex 3.865013 2.729505 -1.312405
endloop
endfacet
facet normal 0.994467 -0.104958 0.004347
outer loop
vertex 3.857679 2.734850 0.494726
vertex 3.856569 2.735659 0.768321
vertex 3.786052 2.067592 0.770011
endloop
endfacet
facet normal 0.994467 -0.104957 0.004346
outer loop
vertex 3.865013 2.729505 -1.312405
vertex 3.857679 2.734850 0.494726
vertex 3.786052 2.067592 0.770011
endloop
endfacet
facet normal 0.003593 -0.002909 -0.999989
outer loop
vertex -2.637475 1.320415 0.826210
vertex -2.216653 5.307239 0.816125
vertex 1.152406 4.951657 0.829264
endloop
endfacet
facet normal 0.003698 -0.003018 -0.999989
outer loop
vertex -2.637475 1.320415 0.826210
vertex 1.152406 4.951657 0.829264
vertex 1.836731 0.848276 0.844179
endloop
endfacet
facet normal 0.001699 -0.002709 -0.999995
outer loop
vertex 2.144833 5.086330 0.831505
vertex 1.929654 2.249743 0.838824
vertex 1.907053 2.035624 0.839365
endloop
endfacet
facet normal -0.001853 -0.003944 -0.999991
outer loop
vertex 1.907053 2.035624 0.839365
vertex 1.836731 0.848276 0.844179
vertex 1.152406 4.951657 0.829264
endloop
endfacet
facet normal 0.002636 -0.002782 -0.999993
outer loop
vertex 1.907053 2.035624 0.839365
vertex 1.152406 4.951657 0.829264
vertex 2.144833 5.086330 0.831505
endloop
endfacet
endsolid Exported from Blender-3.4.1
