solid Exported from Blender-3.4.1
facet normal 0.916819 -0.399302 0.000000
outer loop
vertex -3.546829 -0.471543 -1.320000
vertex -1.946032 3.203971 -1.320000
vertex -1.946032 3.203971 0.840809
endloop
endfacet
facet normal 0.916819 -0.399302 0.000000
outer loop
vertex -3.546829 -0.471543 -1.320000
vertex -1.946032 3.203971 0.840809
vertex -3.546829 -0.471543 0.840809
endloop
endfacet
facet normal -0.399302 -0.916819 0.000000
outer loop
vertex 2.146931 1.681062 -1.320000
vertex 3.833165 0.946656 -1.320000
vertex 3.833165 0.946656 0.837637
endloop
endfacet
facet normal -0.399302 -0.916819 0.000000
outer loop
vertex 2.146931 1.681062 -1.320000
vertex 3.833165 0.946656 0.837637
vertex 2.146931 1.681062 0.837835
endloop
endfacet
facet normal -0.916819 0.399302 0.000000
outer loop
vertex 2.973515 -1.027145 0.490552
vertex 2.973515 -1.027145 -1.320000
vertex 2.697256 -1.661451 -1.320000
endloop
endfacet
facet normal -0.916819 0.399302 0.000000
outer loop
vertex 2.697256 -1.661451 -1.320000
vertex 2.697256 -1.661451 0.837637
vertex 2.973515 -1.027145 0.837637
endloop
endfacet
facet normal -0.916819 0.399302 0.000000
outer loop
vertex 2.697256 -1.661451 -1.320000
vertex 2.973515 -1.027145 0.837637
vertex 2.973515 -1.027145 0.490552
endloop
endfacet
facet normal -0.398673 -0.917093 0.000000
outer loop
vertex 1.002334 -1.156773 -1.320000
vertex 3.332147 -2.169576 -1.320000
vertex 3.332147 -2.169576 0.837637
endloop
endfacet
facet normal -0.398673 -0.917093 0.000000
outer loop
vertex 1.002334 -1.156773 -1.320000
vertex 3.332147 -2.169576 0.837637
vertex 1.002334 -1.156773 0.837637
endloop
endfacet
facet normal 0.399940 0.916541 0.000000
outer loop
vertex 2.697256 -1.661451 -1.320000
vertex 1.088307 -0.959374 -1.320000
vertex 1.088307 -0.959374 0.837637
endloop
endfacet
facet normal 0.399940 0.916541 0.000000
outer loop
vertex 2.697256 -1.661451 -1.320000
vertex 1.088307 -0.959374 0.837637
vertex 2.697256 -1.661451 0.837637
endloop
endfacet
facet normal -0.916819 0.399303 0.000000
outer loop
vertex 1.088307 -0.959374 -1.320000
vertex 1.002334 -1.156773 -1.320000
vertex 1.002334 -1.156773 0.837637
endloop
endfacet
facet normal -0.916819 0.399302 0.000000
outer loop
vertex 1.088307 -0.959374 -1.320000
vertex 1.002334 -1.156773 0.837637
vertex 1.088307 -0.959374 0.837637
endloop
endfacet
facet normal -0.916819 0.399302 0.000000
outer loop
vertex 3.332147 -2.169576 -1.320000
vertex 2.857042 -3.260443 -1.320000
vertex 2.857042 -3.260443 0.837637
endloop
endfacet
facet normal -0.916819 0.399302 0.000000
outer loop
vertex 3.332147 -2.169576 -1.320000
vertex 2.857042 -3.260443 0.837637
vertex 3.332147 -2.169576 0.837637
endloop
endfacet
facet normal -0.916819 0.399302 0.000000
outer loop
vertex 3.833165 0.946656 0.837637
vertex 3.833165 0.946656 -1.320000
vertex 3.431129 0.023561 -1.320000
endloop
endfacet
facet normal -0.916819 0.399303 0.000000
outer loop
vertex 3.431129 0.023561 0.490552
vertex 3.431129 0.023561 0.837637
vertex 3.833165 0.946656 0.837637
endloop
endfacet
facet normal -0.916819 0.399302 0.000000
outer loop
vertex 3.431129 0.023561 -1.320000
vertex 3.431129 0.023561 0.490552
vertex 3.833165 0.946656 0.837637
endloop
endfacet
facet normal -0.916819 0.399302 0.000000
outer loop
vertex 3.431129 0.023561 0.490552
vertex 2.973515 -1.027145 0.490552
vertex 2.973515 -1.027145 0.837637
endloop
endfacet
facet normal -0.916819 0.399302 0.000000
outer loop
vertex 3.431129 0.023561 0.490552
vertex 2.973515 -1.027145 0.837637
vertex 3.431129 0.023561 0.837637
endloop
endfacet
facet normal -0.000000 0.000000 -1.000000
outer loop
vertex 2.974395 -1.027528 0.490552
vertex 3.432009 0.023178 0.490552
vertex 3.530665 -0.019790 0.490552
endloop
endfacet
facet normal 0.000000 0.000000 -1.000000
outer loop
vertex 2.974395 -1.027528 0.490552
vertex 3.530665 -0.019790 0.490552
vertex 3.073051 -1.070495 0.490552
endloop
endfacet
facet normal -0.399302 -0.916820 0.000000
outer loop
vertex 3.432009 0.023178 0.490552
vertex 3.432009 0.023178 -1.320000
vertex 3.530665 -0.019790 -1.320000
endloop
endfacet
facet normal -0.399302 -0.916820 0.000000
outer loop
vertex 3.432009 0.023178 0.490552
vertex 3.530665 -0.019790 -1.320000
vertex 3.530665 -0.019790 0.490552
endloop
endfacet
facet normal 0.399302 0.916820 0.000000
outer loop
vertex 2.974395 -1.027528 -1.320000
vertex 2.974395 -1.027528 0.490552
vertex 3.073051 -1.070495 0.490552
endloop
endfacet
facet normal 0.399302 0.916820 0.000000
outer loop
vertex 2.974395 -1.027528 -1.320000
vertex 3.073051 -1.070495 0.490552
vertex 3.073051 -1.070495 -1.320000
endloop
endfacet
facet normal 0.000001 0.000000 1.000000
outer loop
vertex 3.432009 0.023178 -1.320000
vertex 2.974395 -1.027528 -1.320000
vertex 3.073051 -1.070495 -1.320000
endloop
endfacet
facet normal 0.000000 0.000000 1.000000
outer loop
vertex 3.432009 0.023178 -1.320000
vertex 3.073051 -1.070495 -1.320000
vertex 3.530665 -0.019790 -1.320000
endloop
endfacet
facet normal -0.399302 -0.916819 0.000000
outer loop
vertex -1.946032 3.203971 -1.320000
vertex 1.159966 1.851215 -1.320000
vertex 1.159966 1.851215 0.839223
endloop
endfacet
facet normal -0.399302 -0.916819 0.000000
outer loop
vertex -1.946032 3.203971 -1.320000
vertex 1.159966 1.851215 0.839223
vertex -1.946032 3.203971 0.840809
endloop
endfacet
facet normal 0.917279 -0.398246 0.000000
outer loop
vertex 1.159966 1.851215 -1.320000
vertex 1.700417 3.096035 -1.320000
vertex 1.700417 3.096035 0.838430
endloop
endfacet
facet normal 0.917279 -0.398246 0.000000
outer loop
vertex 1.159966 1.851215 -1.320000
vertex 1.700417 3.096035 0.838430
vertex 1.159966 1.851215 0.839223
endloop
endfacet
facet normal -0.399302 -0.916819 0.000000
outer loop
vertex 1.700417 3.096035 -1.320000
vertex 2.592387 2.707556 -1.320000
vertex 2.592387 2.707556 0.838033
endloop
endfacet
facet normal -0.399302 -0.916819 0.000000
outer loop
vertex 1.700417 3.096035 -1.320000
vertex 2.592387 2.707556 0.838033
vertex 1.700417 3.096035 0.838430
endloop
endfacet
facet normal -0.917346 0.398091 0.000000
outer loop
vertex 2.592387 2.707556 -1.320000
vertex 2.146931 1.681062 -1.320000
vertex 2.146931 1.681062 0.837835
endloop
endfacet
facet normal -0.917346 0.398091 0.000000
outer loop
vertex 2.592387 2.707556 -1.320000
vertex 2.146931 1.681062 0.837835
vertex 2.592387 2.707556 0.838033
endloop
endfacet
facet normal -0.000000 0.000000 1.000000
outer loop
vertex 1.159966 1.851215 -1.320000
vertex -1.946032 3.203971 -1.320000
vertex -3.546829 -0.471543 -1.320000
endloop
endfacet
facet normal 0.001485 0.000000 0.999999
outer loop
vertex -3.546829 -0.471543 -1.320000
vertex -0.135019 -1.957444 -1.320000
vertex 0.578051 -2.267963 -1.320000
endloop
endfacet
facet normal 0.000000 0.000000 1.000000
outer loop
vertex 0.578051 -2.267963 -1.320000
vertex 2.857042 -3.260443 -1.320000
vertex 3.332147 -2.169576 -1.320000
endloop
endfacet
facet normal 0.000000 0.000000 1.000000
outer loop
vertex 0.578051 -2.267963 -1.320000
vertex 3.332147 -2.169576 -1.320000
vertex 1.002334 -1.156773 -1.320000
endloop
endfacet
facet normal -0.000000 0.000000 1.000000
outer loop
vertex 1.159966 1.851215 -1.320000
vertex -3.546829 -0.471543 -1.320000
vertex 0.578051 -2.267963 -1.320000
endloop
endfacet
facet normal 0.000000 0.000000 1.000000
outer loop
vertex 2.592387 2.707556 -1.320000
vertex 1.700417 3.096035 -1.320000
vertex 1.159966 1.851215 -1.320000
endloop
endfacet
facet normal 0.000000 0.000000 1.000000
outer loop
vertex 3.431129 0.023561 -1.320000
vertex 3.833165 0.946656 -1.320000
vertex 2.146931 1.681062 -1.320000
endloop
endfacet
facet normal 0.000000 0.000000 1.000000
outer loop
vertex 2.146931 1.681062 -1.320000
vertex 2.592387 2.707556 -1.320000
vertex 1.159966 1.851215 -1.320000
endloop
endfacet
facet normal 0.000000 0.000000 1.000000
outer loop
vertex 1.159966 1.851215 -1.320000
vertex 0.578051 -2.267963 -1.320000
vertex 1.002334 -1.156773 -1.320000
endloop
endfacet
facet normal 0.000000 0.000000 1.000000
outer loop
vertex 1.088307 -0.959374 -1.320000
vertex 2.697256 -1.661451 -1.320000
vertex 2.973515 -1.027145 -1.320000
endloop
endfacet
facet normal 0.000000 0.000000 1.000000
outer loop
vertex 1.159966 1.851215 -1.320000
vertex 1.002334 -1.156773 -1.320000
vertex 1.088307 -0.959374 -1.320000
endloop
endfacet
facet normal -0.000000 0.000000 1.000000
outer loop
vertex 3.431129 0.023561 -1.320000
vertex 2.146931 1.681062 -1.320000
vertex 1.159966 1.851215 -1.320000
endloop
endfacet
facet normal 0.000000 0.000000 1.000000
outer loop
vertex 1.088307 -0.959374 -1.320000
vertex 2.973515 -1.027145 -1.320000
vertex 3.431129 0.023561 -1.320000
endloop
endfacet
facet normal 0.000000 0.000000 1.000000
outer loop
vertex 1.088307 -0.959374 -1.320000
vertex 3.431129 0.023561 -1.320000
vertex 1.159966 1.851215 -1.320000
endloop
endfacet
facet normal 0.399272 0.916832 0.000000
outer loop
vertex 0.578051 -2.267963 0.838766
vertex 2.857042 -3.260443 0.837637
vertex 2.857042 -3.260443 -1.320000
endloop
endfacet
facet normal 0.399272 0.916832 0.000000
outer loop
vertex 2.857042 -3.260443 -1.320000
vertex 0.578051 -2.267963 -1.320000
vertex 0.578051 -2.267963 0.653706
endloop
endfacet
facet normal 0.399272 0.916832 0.000000
outer loop
vertex 2.857042 -3.260443 -1.320000
vertex 0.578051 -2.267963 0.653706
vertex 0.578051 -2.267963 0.838766
endloop
endfacet
facet normal -0.916865 0.399197 0.000000
outer loop
vertex 0.578051 -2.267963 0.653706
vertex 0.578051 -2.267963 -1.320000
vertex 0.547628 -2.337838 -1.320000
endloop
endfacet
facet normal -0.916866 0.399195 0.000000
outer loop
vertex 0.578051 -2.267963 0.653706
vertex 0.547628 -2.337838 -1.320000
vertex 0.547628 -2.337838 0.653706
endloop
endfacet
facet normal 0.399292 0.916824 0.000000
outer loop
vertex -3.546829 -0.471543 -1.320000
vertex -3.546829 -0.471543 0.840809
vertex -0.135019 -1.957444 0.654102
endloop
endfacet
facet normal 0.399292 0.916824 0.000000
outer loop
vertex -3.546829 -0.471543 -1.320000
vertex -0.135019 -1.957444 0.654102
vertex -0.135019 -1.957444 -1.320000
endloop
endfacet
facet normal 0.399260 0.916838 0.000000
outer loop
vertex 0.578051 -2.267963 0.839223
vertex 2.857042 -3.260443 0.837637
vertex 0.578051 -2.267963 0.838766
endloop
endfacet
facet normal 0.399253 0.916841 -0.000836
outer loop
vertex 0.578051 -2.267963 0.653706
vertex -0.135019 -1.957444 0.654102
vertex -3.546829 -0.471543 0.840809
endloop
endfacet
facet normal 0.399286 0.916827 0.000000
outer loop
vertex 0.578051 -2.267963 0.653706
vertex -3.546829 -0.471543 0.840809
vertex 0.578051 -2.267963 0.838766
endloop
endfacet
facet normal -0.000468 0.000204 -1.000000
outer loop
vertex -0.135019 -1.957444 0.654102
vertex 0.578051 -2.267963 0.653706
vertex 0.547628 -2.337838 0.653706
endloop
endfacet
facet normal -0.000467 0.000204 -1.000000
outer loop
vertex -0.135019 -1.957444 0.654102
vertex 0.547628 -2.337838 0.653706
vertex -0.165442 -2.027319 0.654102
endloop
endfacet
facet normal 0.916865 -0.399196 0.000000
outer loop
vertex -0.135019 -1.957444 -1.320000
vertex -0.135019 -1.957444 0.654102
vertex -0.165442 -2.027319 0.654102
endloop
endfacet
facet normal 0.916866 -0.399196 0.000000
outer loop
vertex -0.135019 -1.957444 -1.320000
vertex -0.165442 -2.027319 0.654102
vertex -0.165442 -2.027319 -1.320000
endloop
endfacet
facet normal 0.000000 0.000000 1.000000
outer loop
vertex 0.578051 -2.267963 -1.320000
vertex -0.135019 -1.957444 -1.320000
vertex -0.165442 -2.027319 -1.320000
endloop
endfacet
facet normal 0.000000 0.000000 1.000000
outer loop
vertex 0.578051 -2.267963 -1.320000
vertex -0.165442 -2.027319 -1.320000
vertex 0.547628 -2.337838 -1.320000
endloop
endfacet
facet normal 0.000000 0.000000 1.000000
outer loop
vertex -2.698171 -0.935841 -1.320000
vertex -4.130218 -4.223896 -1.320000
vertex -0.795812 -5.676130 -1.320000
endloop
endfacet
facet normal 0.000001 0.000000 1.000000
outer loop
vertex -0.795812 -5.676130 -1.320000
vertex 0.636235 -2.388075 -1.320000
vertex 0.542630 -2.347307 -1.320000
endloop
endfacet
facet normal 0.000000 0.000000 -1.000000
outer loop
vertex 0.542630 -2.347307 -1.320000
vertex -0.171272 -2.036381 -1.320000
vertex -2.698171 -0.935841 -1.320000
endloop
endfacet
facet normal -0.000000 0.000000 1.000000
outer loop
vertex -0.795812 -5.676130 -1.320000
vertex 0.542630 -2.347307 -1.320000
vertex -2.698171 -0.935841 -1.320000
endloop
endfacet
facet normal 0.000000 0.000000 0.000000
outer loop
vertex -4.130218 -4.223896 -1.320000
vertex -2.698171 -0.935841 -1.320000
vertex -2.698171 -0.935841 -1.320000
endloop
endfacet
facet normal 0.000000 0.000000 0.000000
outer loop
vertex -4.130218 -4.223896 -1.320000
vertex -2.698171 -0.935841 -1.320000
vertex -4.130218 -4.223896 -1.320000
endloop
endfacet
facet normal 0.916819 -0.399302 0.000000
outer loop
vertex -4.130218 -4.223896 -1.320000
vertex -2.698171 -0.935841 -1.320000
vertex -2.698171 -0.935841 0.897318
endloop
endfacet
facet normal 0.916819 -0.399302 0.000000
outer loop
vertex -4.130218 -4.223896 -1.320000
vertex -2.698171 -0.935841 0.897318
vertex -4.130218 -4.223896 0.897318
endloop
endfacet
facet normal 0.399302 0.916819 0.000000
outer loop
vertex -0.795812 -5.676130 -1.320000
vertex -4.130218 -4.223896 -1.320000
vertex -4.130218 -4.223896 0.903336
endloop
endfacet
facet normal 0.399302 0.916819 0.000000
outer loop
vertex -0.795812 -5.676130 -1.320000
vertex -4.130218 -4.223896 0.903336
vertex -0.795812 -5.676130 0.903336
endloop
endfacet
facet normal -0.399304 -0.916819 0.000000
outer loop
vertex 0.542630 -2.347307 0.653146
vertex 0.542630 -2.347307 -1.320000
vertex 0.636235 -2.388075 -1.320000
endloop
endfacet
facet normal -0.399304 -0.916819 0.000000
outer loop
vertex 0.636235 -2.388075 -1.320000
vertex 0.636235 -2.388075 0.898077
vertex 0.542630 -2.347307 0.898077
endloop
endfacet
facet normal -0.399307 -0.916817 0.000000
outer loop
vertex 0.636235 -2.388075 -1.320000
vertex 0.542630 -2.347307 0.898077
vertex 0.542630 -2.347307 0.653146
endloop
endfacet
facet normal -0.916819 0.399302 0.000000
outer loop
vertex 0.636235 -2.388075 -1.320000
vertex -0.795812 -5.676130 -1.320000
vertex -0.795812 -5.676130 0.903336
endloop
endfacet
facet normal -0.916819 0.399302 0.000000
outer loop
vertex 0.636235 -2.388075 -1.320000
vertex -0.795812 -5.676130 0.903336
vertex 0.636235 -2.388075 0.898077
endloop
endfacet
facet normal -0.399302 -0.916819 0.000000
outer loop
vertex -2.698171 -0.935841 0.898077
vertex -2.698171 -0.935841 -1.320000
vertex -0.171272 -2.036381 -1.320000
endloop
endfacet
facet normal -0.399302 -0.916819 0.000000
outer loop
vertex -0.171272 -2.036381 0.653146
vertex -0.171272 -2.036381 0.898077
vertex -2.698171 -0.935841 0.898077
endloop
endfacet
facet normal -0.399302 -0.916819 0.000000
outer loop
vertex -0.171272 -2.036381 -1.320000
vertex -0.171272 -2.036381 0.653146
vertex -2.698171 -0.935841 0.898077
endloop
endfacet
facet normal -0.399303 -0.916819 0.000000
outer loop
vertex -0.171272 -2.036381 0.653146
vertex 0.542630 -2.347307 0.653146
vertex 0.542630 -2.347307 0.898077
endloop
endfacet
facet normal -0.399302 -0.916819 0.000000
outer loop
vertex -0.171272 -2.036381 0.653146
vertex 0.542630 -2.347307 0.898077
vertex -0.171272 -2.036381 0.898077
endloop
endfacet
facet normal -0.000000 0.000000 1.000000
outer loop
vertex 3.071918 -1.075410 -1.320000
vertex 2.803674 -1.691312 -1.320000
vertex 5.169051 -2.721504 -1.320000
endloop
endfacet
facet normal 0.000000 0.000000 1.000000
outer loop
vertex 5.169051 -2.721504 -1.320000
vertex 6.295225 -0.135749 -1.320000
vertex 3.929848 0.894444 -1.320000
endloop
endfacet
facet normal 0.000000 0.000000 1.000000
outer loop
vertex 3.531949 -0.019155 -1.320000
vertex 3.071918 -1.075410 -1.320000
vertex 5.169051 -2.721504 -1.320000
endloop
endfacet
facet normal -0.000000 0.000000 1.000000
outer loop
vertex 5.169051 -2.721504 -1.320000
vertex 3.929848 0.894444 -1.320000
vertex 3.531949 -0.019155 -1.320000
endloop
endfacet
facet normal 0.916819 -0.399302 0.000000
outer loop
vertex 3.531949 -0.019155 0.487153
vertex 3.531949 -0.019155 -1.320000
vertex 3.929848 0.894444 -1.320000
endloop
endfacet
facet normal 0.916820 -0.399302 0.000000
outer loop
vertex 3.929848 0.894444 -1.320000
vertex 3.929848 0.894444 0.760751
vertex 3.531949 -0.019155 0.760751
endloop
endfacet
facet normal 0.916819 -0.399303 0.000000
outer loop
vertex 3.929848 0.894444 -1.320000
vertex 3.531949 -0.019155 0.760751
vertex 3.531949 -0.019155 0.487153
endloop
endfacet
facet normal -0.916819 0.399302 0.000000
outer loop
vertex 6.295225 -0.135749 -1.320000
vertex 5.169051 -2.721504 -1.320000
vertex 5.169051 -2.721504 0.858783
endloop
endfacet
facet normal -0.916819 0.399302 0.000000
outer loop
vertex 6.295225 -0.135749 -1.320000
vertex 5.169051 -2.721504 0.858783
vertex 6.295225 -0.135749 0.858783
endloop
endfacet
facet normal 0.399302 0.916819 0.000000
outer loop
vertex 5.169051 -2.721504 -1.320000
vertex 2.803674 -1.691312 -1.320000
vertex 2.803674 -1.691312 0.760751
endloop
endfacet
facet normal 0.399302 0.916819 0.000000
outer loop
vertex 5.169051 -2.721504 -1.320000
vertex 2.803674 -1.691312 0.760751
vertex 5.169051 -2.721504 0.858783
endloop
endfacet
facet normal -0.399302 -0.916819 0.000000
outer loop
vertex 6.295225 -0.135749 -1.320000
vertex 6.295225 -0.135749 0.858783
vertex 3.929848 0.894444 0.760751
endloop
endfacet
facet normal -0.399302 -0.916819 0.000000
outer loop
vertex 6.295225 -0.135749 -1.320000
vertex 3.929848 0.894444 0.760751
vertex 3.929848 0.894444 -1.320000
endloop
endfacet
facet normal 0.034811 -0.015161 -0.999279
outer loop
vertex 3.531949 -0.019155 0.760751
vertex 3.929848 0.894444 0.760751
vertex 6.295225 -0.135749 0.858783
endloop
endfacet
facet normal 0.034811 -0.015161 -0.999279
outer loop
vertex 6.295225 -0.135749 0.858783
vertex 5.169051 -2.721504 0.858783
vertex 2.803674 -1.691312 0.760751
endloop
endfacet
facet normal 0.034811 -0.015161 -0.999279
outer loop
vertex 3.071918 -1.075410 0.760751
vertex 3.531949 -0.019155 0.760751
vertex 6.295225 -0.135749 0.858783
endloop
endfacet
facet normal 0.034811 -0.015161 -0.999279
outer loop
vertex 6.295225 -0.135749 0.858783
vertex 2.803674 -1.691312 0.760751
vertex 3.071918 -1.075410 0.760751
endloop
endfacet
facet normal -0.001130 -0.000996 -0.999999
outer loop
vertex 2.857042 -3.260443 0.837637
vertex 0.578051 -2.267963 0.839223
vertex 1.002334 -1.156773 0.837637
endloop
endfacet
facet normal 0.000000 0.000000 -1.000000
outer loop
vertex 2.857042 -3.260443 0.837637
vertex 1.002334 -1.156773 0.837637
vertex 3.332147 -2.169576 0.837637
endloop
endfacet
facet normal -0.000072 0.000104 -1.000000
outer loop
vertex 1.088307 -0.959374 0.837637
vertex 2.146931 1.681062 0.837835
vertex 3.833165 0.946656 0.837637
endloop
endfacet
facet normal 0.000000 0.000000 -1.000000
outer loop
vertex 1.088307 -0.959374 0.837637
vertex 3.833165 0.946656 0.837637
vertex 2.697256 -1.661451 0.837637
endloop
endfacet
facet normal -0.000303 0.000325 -1.000000
outer loop
vertex 1.700417 3.096035 0.838430
vertex 2.592387 2.707556 0.838033
vertex 2.146931 1.681062 0.837835
endloop
endfacet
facet normal -0.001411 -0.000025 -0.999999
outer loop
vertex 1.700417 3.096035 0.838430
vertex 2.146931 1.681062 0.837835
vertex 1.159966 1.851215 0.839223
endloop
endfacet
facet normal -0.000394 -0.001428 -0.999999
outer loop
vertex -2.698171 -0.935841 0.897318
vertex 0.636235 -2.388075 0.898077
vertex -0.795812 -5.676130 0.903336
endloop
endfacet
facet normal 0.001517 -0.000661 -0.999999
outer loop
vertex -2.698171 -0.935841 0.897318
vertex -0.795812 -5.676130 0.903336
vertex -4.130218 -4.223896 0.897318
endloop
endfacet
facet normal 0.916819 -0.399303 0.000000
outer loop
vertex 3.071918 -1.075410 0.487153
vertex 3.531949 -0.019155 0.487153
vertex 3.531949 -0.019155 0.760751
endloop
endfacet
facet normal 0.916819 -0.399302 0.000000
outer loop
vertex 3.071918 -1.075410 0.487153
vertex 3.531949 -0.019155 0.760751
vertex 3.071918 -1.075410 0.760751
endloop
endfacet
facet normal 0.916819 -0.399302 0.000000
outer loop
vertex 2.803674 -1.691312 0.760751
vertex 2.803674 -1.691312 -1.320000
vertex 3.071918 -1.075410 -1.320000
endloop
endfacet
facet normal 0.916819 -0.399302 0.000000
outer loop
vertex 3.071918 -1.075410 0.487153
vertex 3.071918 -1.075410 0.760751
vertex 2.803674 -1.691312 0.760751
endloop
endfacet
facet normal 0.916819 -0.399303 0.000000
outer loop
vertex 3.071918 -1.075410 -1.320000
vertex 3.071918 -1.075410 0.487153
vertex 2.803674 -1.691312 0.760751
endloop
endfacet
facet normal -0.000429 0.000187 -1.000000
outer loop
vertex -3.546829 -0.471543 0.840809
vertex -1.946032 3.203971 0.840809
vertex 1.159966 1.851215 0.839223
endloop
endfacet
facet normal -0.000362 0.000051 -1.000000
outer loop
vertex -3.546829 -0.471543 0.840809
vertex 1.159966 1.851215 0.839223
vertex 0.578051 -2.267963 0.839223
endloop
endfacet
facet normal -0.002148 0.000946 -0.999997
outer loop
vertex 2.146931 1.681062 0.837835
vertex 1.088307 -0.959374 0.837637
vertex 1.002334 -1.156773 0.837637
endloop
endfacet
facet normal -0.005935 0.000838 -0.999982
outer loop
vertex 1.002334 -1.156773 0.837637
vertex 0.578051 -2.267963 0.839223
vertex 1.159966 1.851215 0.839223
endloop
endfacet
facet normal -0.001304 0.000596 -0.999999
outer loop
vertex 1.002334 -1.156773 0.837637
vertex 1.159966 1.851215 0.839223
vertex 2.146931 1.681062 0.837835
endloop
endfacet
endsolid Exported from Blender-3.4.1
