solid Exported from Blender-3.4.1
facet normal -0.659753 0.751478 -0.002730
outer loop
vertex 7.029035 -3.692470 -1.204280
vertex 4.016361 -6.337417 -1.204280
vertex 4.012470 -6.332985 0.956522
endloop
endfacet
facet normal -0.659753 0.751478 -0.002730
outer loop
vertex 7.029035 -3.692470 -1.204280
vertex 4.012470 -6.332985 0.956522
vertex 7.025144 -3.688038 0.956522
endloop
endfacet
facet normal 0.751481 0.659755 0.000000
outer loop
vertex 0.960512 -3.217602 -1.216182
vertex -0.252919 -1.835468 -1.221202
vertex -0.256805 -1.831042 0.936426
endloop
endfacet
facet normal 0.751481 0.659755 0.000000
outer loop
vertex 0.960512 -3.217602 -1.216182
vertex -0.256805 -1.831042 0.936426
vertex 0.956626 -3.213176 0.941645
endloop
endfacet
facet normal 0.659753 -0.751478 0.002730
outer loop
vertex 1.361668 -0.411381 0.589343
vertex 1.364928 -0.415095 -1.221202
vertex 1.884844 0.041360 -1.221202
endloop
endfacet
facet normal 0.659753 -0.751478 0.002730
outer loop
vertex 1.884844 0.041360 -1.221202
vertex 1.880959 0.045786 0.936426
vertex 1.361043 -0.410669 0.936426
endloop
endfacet
facet normal 0.659751 -0.751479 0.002730
outer loop
vertex 1.884844 0.041360 -1.221202
vertex 1.361043 -0.410669 0.936426
vertex 1.361668 -0.411381 0.589343
endloop
endfacet
facet normal 0.751028 0.660271 -0.000002
outer loop
vertex 3.203894 -1.136581 -1.216411
vertex 1.526527 0.771348 -1.223345
vertex 1.522642 0.775774 0.934284
endloop
endfacet
facet normal 0.751028 0.660270 -0.000002
outer loop
vertex 3.203894 -1.136581 -1.216411
vertex 1.522642 0.775774 0.934284
vertex 3.200008 -1.132155 0.941218
endloop
endfacet
facet normal -0.751940 -0.659232 -0.000002
outer loop
vertex 1.884844 0.041360 -1.221202
vertex 3.042094 -1.278632 -1.216411
vertex 3.038208 -1.274206 0.941218
endloop
endfacet
facet normal -0.751940 -0.659232 -0.000002
outer loop
vertex 1.884844 0.041360 -1.221202
vertex 3.038208 -1.274206 0.941218
vertex 1.880959 0.045786 0.936426
endloop
endfacet
facet normal 0.659753 -0.751477 0.002730
outer loop
vertex 3.042094 -1.278632 -1.216411
vertex 3.203894 -1.136581 -1.216411
vertex 3.200008 -1.132155 0.941218
endloop
endfacet
facet normal 0.659753 -0.751477 0.002730
outer loop
vertex 3.042094 -1.278632 -1.216411
vertex 3.200008 -1.132155 0.941218
vertex 3.038208 -1.274206 0.941218
endloop
endfacet
facet normal 0.659753 -0.751478 0.002730
outer loop
vertex 1.526527 0.771348 -1.223345
vertex 2.420668 1.556350 -1.223345
vertex 2.416783 1.560776 0.934284
endloop
endfacet
facet normal 0.659753 -0.751478 0.002730
outer loop
vertex 1.526527 0.771348 -1.223345
vertex 2.416783 1.560776 0.934284
vertex 1.522642 0.775774 0.934284
endloop
endfacet
facet normal 0.659752 -0.751478 0.002730
outer loop
vertex -0.256805 -1.831042 0.936426
vertex -0.252919 -1.835468 -1.221202
vertex 0.503706 -1.171196 -1.221202
endloop
endfacet
facet normal 0.221415 0.975180 0.000000
outer loop
vertex 0.503706 -1.171196 -1.221202
vertex 0.500446 -1.167482 0.589343
vertex 0.499821 -1.166770 0.936426
endloop
endfacet
facet normal 0.659752 -0.751478 0.002730
outer loop
vertex 0.503706 -1.171196 -1.221202
vertex 0.499821 -1.166770 0.936426
vertex -0.256805 -1.831042 0.936426
endloop
endfacet
facet normal 0.659753 -0.751478 0.002729
outer loop
vertex 0.500446 -1.167482 0.589343
vertex 1.361668 -0.411381 0.589343
vertex 1.361043 -0.410669 0.936426
endloop
endfacet
facet normal 0.659752 -0.751478 0.002730
outer loop
vertex 0.500446 -1.167482 0.589343
vertex 1.361043 -0.410669 0.936426
vertex 0.499821 -1.166770 0.936426
endloop
endfacet
facet normal 0.001801 -0.002051 -0.999996
outer loop
vertex 1.361035 -0.410660 0.589340
vertex 0.499813 -1.166761 0.589340
vertex 0.428819 -1.085897 0.589047
endloop
endfacet
facet normal 0.001801 -0.002051 -0.999996
outer loop
vertex 1.361035 -0.410660 0.589340
vertex 0.428819 -1.085897 0.589047
vertex 1.290041 -0.329796 0.589047
endloop
endfacet
facet normal 0.751481 0.659755 0.000000
outer loop
vertex 0.499813 -1.166761 0.589340
vertex 0.503073 -1.170475 -1.221205
vertex 0.432079 -1.089611 -1.221499
endloop
endfacet
facet normal 0.751481 0.659755 -0.000000
outer loop
vertex 0.499813 -1.166761 0.589340
vertex 0.432079 -1.089611 -1.221499
vertex 0.428819 -1.085897 0.589047
endloop
endfacet
facet normal -0.751481 -0.659755 0.000000
outer loop
vertex 1.364295 -0.414374 -1.221205
vertex 1.361035 -0.410660 0.589340
vertex 1.290041 -0.329796 0.589047
endloop
endfacet
facet normal -0.751482 -0.659754 0.000000
outer loop
vertex 1.364295 -0.414374 -1.221205
vertex 1.290041 -0.329796 0.589047
vertex 1.293301 -0.333510 -1.221499
endloop
endfacet
facet normal -0.001800 0.002050 0.999996
outer loop
vertex 0.503073 -1.170475 -1.221205
vertex 1.364295 -0.414374 -1.221205
vertex 1.293301 -0.333510 -1.221499
endloop
endfacet
facet normal -0.001801 0.002050 0.999996
outer loop
vertex 0.503073 -1.170475 -1.221205
vertex 1.293301 -0.333510 -1.221499
vertex 0.432079 -1.089611 -1.221499
endloop
endfacet
facet normal 0.751481 0.659755 -0.000000
outer loop
vertex 4.016361 -6.337417 -1.204280
vertex 1.781253 -3.791562 -1.213527
vertex 1.777364 -3.787133 0.945688
endloop
endfacet
facet normal 0.751481 0.659755 0.000000
outer loop
vertex 4.016361 -6.337417 -1.204280
vertex 1.777364 -3.787133 0.945688
vertex 4.012470 -6.332985 0.956522
endloop
endfacet
facet normal -0.660618 0.750717 -0.002729
outer loop
vertex 1.781253 -3.791562 -1.213527
vertex 0.762466 -4.688076 -1.213523
vertex 0.758579 -4.683650 0.944899
endloop
endfacet
facet normal -0.660618 0.750717 -0.002730
outer loop
vertex 1.781253 -3.791562 -1.213527
vertex 0.758579 -4.683650 0.944899
vertex 1.777364 -3.787133 0.945688
endloop
endfacet
facet normal 0.751481 0.659755 -0.000000
outer loop
vertex 0.762466 -4.688076 -1.213523
vertex 0.120596 -3.956967 -1.216178
vertex 0.116709 -3.952540 0.941847
endloop
endfacet
facet normal 0.751481 0.659755 0.000000
outer loop
vertex 0.762466 -4.688076 -1.213523
vertex 0.116709 -3.952540 0.941847
vertex 0.758579 -4.683650 0.944899
endloop
endfacet
facet normal 0.660745 -0.750605 0.002729
outer loop
vertex 0.120596 -3.956967 -1.216178
vertex 0.960512 -3.217602 -1.216182
vertex 0.956626 -3.213176 0.941645
endloop
endfacet
facet normal 0.660745 -0.750606 0.002730
outer loop
vertex 0.120596 -3.956967 -1.216178
vertex 0.956626 -3.213176 0.941645
vertex 0.116709 -3.952540 0.941847
endloop
endfacet
facet normal -0.001801 0.002051 0.999996
outer loop
vertex 1.781253 -3.791562 -1.213527
vertex 4.016361 -6.337417 -1.204280
vertex 7.029035 -3.692470 -1.204280
endloop
endfacet
facet normal 0.000000 0.002448 0.999997
outer loop
vertex 7.029035 -3.692470 -1.204280
vertex 4.573843 -0.895994 -1.214437
vertex 4.060692 -0.311561 -1.216560
endloop
endfacet
facet normal -0.001801 0.002051 0.999996
outer loop
vertex 4.060692 -0.311561 -1.216560
vertex 2.420668 1.556350 -1.223345
vertex 1.526527 0.771348 -1.223345
endloop
endfacet
facet normal -0.001801 0.002051 0.999996
outer loop
vertex 4.060692 -0.311561 -1.216560
vertex 1.526527 0.771348 -1.223345
vertex 3.203894 -1.136581 -1.216411
endloop
endfacet
facet normal -0.001801 0.002051 0.999996
outer loop
vertex 1.781253 -3.791562 -1.213527
vertex 7.029035 -3.692470 -1.204280
vertex 4.060692 -0.311561 -1.216560
endloop
endfacet
facet normal -0.001801 0.002051 0.999996
outer loop
vertex 0.120596 -3.956967 -1.216178
vertex 0.762466 -4.688076 -1.213523
vertex 1.781253 -3.791562 -1.213527
endloop
endfacet
facet normal -0.001801 0.002051 0.999996
outer loop
vertex 0.503706 -1.171196 -1.221202
vertex -0.252919 -1.835468 -1.221202
vertex 0.960512 -3.217602 -1.216182
endloop
endfacet
facet normal -0.001801 0.002051 0.999996
outer loop
vertex 0.960512 -3.217602 -1.216182
vertex 0.120596 -3.956967 -1.216178
vertex 1.781253 -3.791562 -1.213527
endloop
endfacet
facet normal -0.001800 0.002051 0.999996
outer loop
vertex 1.781253 -3.791562 -1.213527
vertex 4.060692 -0.311561 -1.216560
vertex 3.203894 -1.136581 -1.216411
endloop
endfacet
facet normal -0.001801 0.002051 0.999996
outer loop
vertex 3.042094 -1.278632 -1.216411
vertex 1.884844 0.041360 -1.221202
vertex 1.364928 -0.415095 -1.221202
endloop
endfacet
facet normal -0.001802 0.002051 0.999996
outer loop
vertex 1.781253 -3.791562 -1.213527
vertex 3.203894 -1.136581 -1.216411
vertex 3.042094 -1.278632 -1.216411
endloop
endfacet
facet normal -0.001801 0.002051 0.999996
outer loop
vertex 0.503706 -1.171196 -1.221202
vertex 0.960512 -3.217602 -1.216182
vertex 1.781253 -3.791562 -1.213527
endloop
endfacet
facet normal -0.001801 0.002051 0.999996
outer loop
vertex 3.042094 -1.278632 -1.216411
vertex 1.364928 -0.415095 -1.221202
vertex 0.503706 -1.171196 -1.221202
endloop
endfacet
facet normal -0.001801 0.002051 0.999996
outer loop
vertex 3.042094 -1.278632 -1.216411
vertex 0.503706 -1.171196 -1.221202
vertex 1.781253 -3.791562 -1.213527
endloop
endfacet
facet normal -0.751459 -0.659780 0.000000
outer loop
vertex 4.056804 -0.307133 0.942197
vertex 2.416783 1.560776 0.934284
vertex 2.420668 1.556350 -1.223345
endloop
endfacet
facet normal -0.751459 -0.659780 0.000000
outer loop
vertex 2.420668 1.556350 -1.223345
vertex 4.060692 -0.311561 -1.216560
vertex 4.057137 -0.307513 0.757138
endloop
endfacet
facet normal -0.751459 -0.659779 -0.000000
outer loop
vertex 2.420668 1.556350 -1.223345
vertex 4.057137 -0.307513 0.757138
vertex 4.056804 -0.307133 0.942197
endloop
endfacet
facet normal 0.659834 -0.751407 0.002730
outer loop
vertex 4.057137 -0.307513 0.757138
vertex 4.060692 -0.311561 -1.216560
vertex 4.117957 -0.261274 -1.216560
endloop
endfacet
facet normal 0.659840 -0.751401 0.002730
outer loop
vertex 4.057137 -0.307513 0.757138
vertex 4.117957 -0.261274 -1.216560
vertex 4.114403 -0.257226 0.757138
endloop
endfacet
facet normal -0.751474 -0.659763 0.000000
outer loop
vertex 7.029035 -3.692470 -1.204280
vertex 7.025144 -3.688038 0.956522
vertex 4.570288 -0.891945 0.759658
endloop
endfacet
facet normal -0.751474 -0.659763 -0.000000
outer loop
vertex 7.029035 -3.692470 -1.204280
vertex 4.570288 -0.891945 0.759658
vertex 4.573843 -0.895994 -1.214437
endloop
endfacet
facet normal -0.751499 -0.659734 -0.000419
outer loop
vertex 4.056803 -0.307132 0.942655
vertex 2.416783 1.560776 0.934284
vertex 4.056804 -0.307133 0.942197
endloop
endfacet
facet normal -0.751445 -0.659795 -0.000836
outer loop
vertex 4.057137 -0.307513 0.757138
vertex 4.570288 -0.891945 0.759658
vertex 7.025144 -3.688038 0.956522
endloop
endfacet
facet normal -0.751468 -0.659769 0.000000
outer loop
vertex 4.057137 -0.307513 0.757138
vertex 7.025144 -3.688038 0.956522
vertex 4.056804 -0.307133 0.942197
endloop
endfacet
facet normal 0.002137 -0.002435 -0.999995
outer loop
vertex 4.570288 -0.891945 0.759658
vertex 4.057137 -0.307513 0.757138
vertex 4.114403 -0.257226 0.757138
endloop
endfacet
facet normal 0.002138 -0.002434 -0.999995
outer loop
vertex 4.570288 -0.891945 0.759658
vertex 4.114403 -0.257226 0.757138
vertex 4.627553 -0.841658 0.759658
endloop
endfacet
facet normal -0.659845 0.751397 -0.002730
outer loop
vertex 4.573843 -0.895994 -1.214437
vertex 4.570288 -0.891945 0.759658
vertex 4.627553 -0.841658 0.759658
endloop
endfacet
facet normal -0.659839 0.751402 -0.002730
outer loop
vertex 4.573843 -0.895994 -1.214437
vertex 4.627553 -0.841658 0.759658
vertex 4.631108 -0.845707 -1.214437
endloop
endfacet
facet normal -0.001802 0.002051 0.999996
outer loop
vertex 4.060692 -0.311561 -1.216560
vertex 4.573843 -0.895994 -1.214437
vertex 4.631108 -0.845707 -1.214437
endloop
endfacet
facet normal -0.001802 0.002051 0.999996
outer loop
vertex 4.060692 -0.311561 -1.216560
vertex 4.631108 -0.845707 -1.214437
vertex 4.117957 -0.261274 -1.216560
endloop
endfacet
facet normal -0.001801 0.002051 0.999996
outer loop
vertex 6.458622 -2.911179 -1.206909
vertex 9.153711 -0.545052 -1.206909
vertex 6.754240 2.188019 -1.216837
endloop
endfacet
facet normal -0.001801 0.002051 0.999996
outer loop
vertex 6.754240 2.188019 -1.216837
vertex 4.059150 -0.178108 -1.216837
vertex 4.126509 -0.254832 -1.216558
endloop
endfacet
facet normal 0.000000 -1.000000 0.000000
outer loop
vertex 4.126509 -0.254832 -1.216558
vertex 4.640240 -0.839988 -1.214433
vertex 6.458622 -2.911179 -1.206909
endloop
endfacet
facet normal -0.001801 0.002051 0.999996
outer loop
vertex 6.754240 2.188019 -1.216837
vertex 4.126509 -0.254832 -1.216558
vertex 6.458622 -2.911179 -1.206909
endloop
endfacet
facet normal 0.000000 0.000000 0.000000
outer loop
vertex 9.153711 -0.545052 -1.206909
vertex 6.458622 -2.911179 -1.206909
vertex 6.458622 -2.911179 -1.206909
endloop
endfacet
facet normal 0.000000 0.000000 0.000000
outer loop
vertex 9.153711 -0.545052 -1.206909
vertex 6.458622 -2.911179 -1.206909
vertex 9.153711 -0.545052 -1.206909
endloop
endfacet
facet normal -0.659752 0.751478 -0.002730
outer loop
vertex 9.153711 -0.545052 -1.206909
vertex 6.458622 -2.911179 -1.206909
vertex 6.454629 -2.906631 1.010400
endloop
endfacet
facet normal -0.659753 0.751478 -0.002730
outer loop
vertex 9.153711 -0.545052 -1.206909
vertex 6.454629 -2.906631 1.010400
vertex 9.149718 -0.540504 1.010400
endloop
endfacet
facet normal -0.751481 -0.659755 0.000000
outer loop
vertex 6.754240 2.188019 -1.216837
vertex 9.153711 -0.545052 -1.206909
vertex 9.149708 -0.540492 1.016418
endloop
endfacet
facet normal -0.751481 -0.659755 -0.000000
outer loop
vertex 6.754240 2.188019 -1.216837
vertex 9.149708 -0.540492 1.016418
vertex 6.750236 2.192579 1.006491
endloop
endfacet
facet normal 0.751484 0.659751 0.000000
outer loop
vertex 4.122955 -0.250785 0.756581
vertex 4.126509 -0.254832 -1.216558
vertex 4.059150 -0.178108 -1.216837
endloop
endfacet
facet normal 0.751484 0.659752 0.000000
outer loop
vertex 4.059150 -0.178108 -1.216837
vertex 4.055155 -0.173558 1.001233
vertex 4.122514 -0.250282 1.001511
endloop
endfacet
facet normal 0.751444 0.659797 -0.000000
outer loop
vertex 4.059150 -0.178108 -1.216837
vertex 4.122514 -0.250282 1.001511
vertex 4.122955 -0.250785 0.756581
endloop
endfacet
facet normal 0.659753 -0.751478 0.002730
outer loop
vertex 4.059150 -0.178108 -1.216837
vertex 6.754240 2.188019 -1.216837
vertex 6.750236 2.192579 1.006491
endloop
endfacet
facet normal 0.659753 -0.751478 0.002730
outer loop
vertex 4.059150 -0.178108 -1.216837
vertex 6.750236 2.192579 1.006491
vertex 4.055155 -0.173558 1.001233
endloop
endfacet
facet normal 0.751481 0.659755 0.000000
outer loop
vertex 6.454628 -2.906630 1.011160
vertex 6.458622 -2.911179 -1.206909
vertex 4.640240 -0.839988 -1.214433
endloop
endfacet
facet normal 0.751480 0.659755 0.000000
outer loop
vertex 4.636687 -0.835940 0.758706
vertex 4.636246 -0.835438 1.003637
vertex 6.454628 -2.906630 1.011160
endloop
endfacet
facet normal 0.751481 0.659755 0.000000
outer loop
vertex 4.640240 -0.839988 -1.214433
vertex 4.636687 -0.835940 0.758706
vertex 6.454628 -2.906630 1.011160
endloop
endfacet
facet normal 0.751482 0.659754 0.000000
outer loop
vertex 4.636687 -0.835940 0.758706
vertex 4.122955 -0.250785 0.756581
vertex 4.122514 -0.250282 1.001511
endloop
endfacet
facet normal 0.751481 0.659755 0.000000
outer loop
vertex 4.636687 -0.835940 0.758706
vertex 4.122514 -0.250282 1.001511
vertex 4.636246 -0.835438 1.003637
endloop
endfacet
facet normal -0.001801 0.002051 0.999996
outer loop
vertex 1.296418 -0.329544 -1.221501
vertex 1.801249 0.113666 -1.221501
vertex 0.099099 2.052465 -1.228544
endloop
endfacet
facet normal -0.001801 0.002051 0.999996
outer loop
vertex 0.099099 2.052465 -1.228544
vertex -2.020343 0.191722 -1.228544
vertex -0.318194 -1.747077 -1.221501
endloop
endfacet
facet normal -0.001801 0.002051 0.999996
outer loop
vertex 0.430647 -1.089639 -1.221501
vertex 1.296418 -0.329544 -1.221501
vertex 0.099099 2.052465 -1.228544
endloop
endfacet
facet normal -0.001801 0.002051 0.999996
outer loop
vertex 0.099099 2.052465 -1.228544
vertex -0.318194 -1.747077 -1.221501
vertex 0.430647 -1.089639 -1.221501
endloop
endfacet
facet normal -0.659753 0.751478 -0.002729
outer loop
vertex 0.427393 -1.085932 0.585645
vertex 0.430647 -1.089639 -1.221501
vertex -0.318194 -1.747077 -1.221501
endloop
endfacet
facet normal -0.659753 0.751478 -0.002730
outer loop
vertex -0.318194 -1.747077 -1.221501
vertex -0.321941 -1.742808 0.859242
vertex 0.426900 -1.085371 0.859242
endloop
endfacet
facet normal -0.659752 0.751478 -0.002730
outer loop
vertex -0.318194 -1.747077 -1.221501
vertex 0.426900 -1.085371 0.859242
vertex 0.427393 -1.085932 0.585645
endloop
endfacet
facet normal 0.659753 -0.751478 0.002730
outer loop
vertex -2.020343 0.191722 -1.228544
vertex 0.099099 2.052465 -1.228544
vertex 0.095176 2.056934 0.950232
endloop
endfacet
facet normal 0.659752 -0.751478 0.002730
outer loop
vertex -2.020343 0.191722 -1.228544
vertex 0.095176 2.056934 0.950232
vertex -2.024266 0.196192 0.950232
endloop
endfacet
facet normal -0.751481 -0.659755 -0.000000
outer loop
vertex 0.099099 2.052465 -1.228544
vertex 1.801249 0.113666 -1.221501
vertex 1.797501 0.117935 0.859242
endloop
endfacet
facet normal -0.751481 -0.659755 0.000000
outer loop
vertex 0.099099 2.052465 -1.228544
vertex 1.797501 0.117935 0.859242
vertex 0.095176 2.056934 0.950232
endloop
endfacet
facet normal 0.751481 0.659755 0.000000
outer loop
vertex -2.020343 0.191722 -1.228544
vertex -2.024266 0.196192 0.950232
vertex -0.321941 -1.742808 0.859242
endloop
endfacet
facet normal 0.751481 0.659755 -0.000000
outer loop
vertex -2.020343 0.191722 -1.228544
vertex -0.321941 -1.742808 0.859242
vertex -0.318194 -1.747077 -1.221501
endloop
endfacet
facet normal -0.023251 0.026484 -0.999379
outer loop
vertex 0.426900 -1.085371 0.859242
vertex -0.321941 -1.742808 0.859242
vertex -2.024266 0.196192 0.950232
endloop
endfacet
facet normal -0.023251 0.026484 -0.999379
outer loop
vertex -2.024266 0.196192 0.950232
vertex 0.095176 2.056934 0.950232
vertex 1.797501 0.117935 0.859242
endloop
endfacet
facet normal -0.023251 0.026484 -0.999379
outer loop
vertex 1.292671 -0.325276 0.859242
vertex 0.426900 -1.085371 0.859242
vertex -2.024266 0.196192 0.950232
endloop
endfacet
facet normal -0.023251 0.026484 -0.999379
outer loop
vertex -2.024266 0.196192 0.950232
vertex 1.797501 0.117935 0.859242
vertex 1.292671 -0.325276 0.859242
endloop
endfacet
facet normal 0.003247 -0.001631 -0.999993
outer loop
vertex 2.416783 1.560776 0.934284
vertex 4.056803 -0.307132 0.942655
vertex 3.200008 -1.132155 0.941218
endloop
endfacet
facet normal 0.001801 -0.002051 -0.999996
outer loop
vertex 2.416783 1.560776 0.934284
vertex 3.200008 -1.132155 0.941218
vertex 1.522642 0.775774 0.934284
endloop
endfacet
facet normal 0.001822 -0.002176 -0.999996
outer loop
vertex 3.038208 -1.274206 0.941218
vertex 0.956626 -3.213176 0.941645
vertex -0.256805 -1.831042 0.936426
endloop
endfacet
facet normal 0.001801 -0.002051 -0.999996
outer loop
vertex 3.038208 -1.274206 0.941218
vertex -0.256805 -1.831042 0.936426
vertex 1.880959 0.045786 0.936426
endloop
endfacet
facet normal 0.001937 -0.002474 -0.999995
outer loop
vertex 0.758579 -4.683650 0.944899
vertex 0.116709 -3.952540 0.941847
vertex 0.956626 -3.213176 0.941645
endloop
endfacet
facet normal 0.003088 -0.002629 -0.999992
outer loop
vertex 0.758579 -4.683650 0.944899
vertex 0.956626 -3.213176 0.941645
vertex 1.777364 -3.787133 0.945688
endloop
endfacet
facet normal 0.002765 -0.000927 -0.999996
outer loop
vertex 6.454629 -2.906631 1.010400
vertex 4.055155 -0.173558 1.001233
vertex 6.750236 2.192579 1.006491
endloop
endfacet
facet normal 0.000709 -0.000808 -0.999999
outer loop
vertex 6.454629 -2.906631 1.010400
vertex 6.750236 2.192579 1.006491
vertex 9.149718 -0.540504 1.010400
endloop
endfacet
facet normal -0.659752 0.751478 -0.002730
outer loop
vertex 1.293164 -0.325837 0.585645
vertex 0.427393 -1.085932 0.585645
vertex 0.426900 -1.085371 0.859242
endloop
endfacet
facet normal -0.659752 0.751478 -0.002729
outer loop
vertex 1.293164 -0.325837 0.585645
vertex 0.426900 -1.085371 0.859242
vertex 1.292671 -0.325276 0.859242
endloop
endfacet
facet normal -0.659753 0.751478 -0.002730
outer loop
vertex 1.797501 0.117935 0.859242
vertex 1.801249 0.113666 -1.221501
vertex 1.296418 -0.329544 -1.221501
endloop
endfacet
facet normal -0.659753 0.751478 -0.002730
outer loop
vertex 1.293164 -0.325837 0.585645
vertex 1.292671 -0.325276 0.859242
vertex 1.797501 0.117935 0.859242
endloop
endfacet
facet normal -0.659752 0.751478 -0.002730
outer loop
vertex 1.296418 -0.329544 -1.221501
vertex 1.293164 -0.325837 0.585645
vertex 1.797501 0.117935 0.859242
endloop
endfacet
facet normal 0.002110 -0.002403 -0.999995
outer loop
vertex 7.025144 -3.688038 0.956522
vertex 4.012470 -6.332985 0.956522
vertex 1.777364 -3.787133 0.945688
endloop
endfacet
facet normal 0.002107 -0.002252 -0.999995
outer loop
vertex 7.025144 -3.688038 0.956522
vertex 1.777364 -3.787133 0.945688
vertex 4.056803 -0.307132 0.942655
endloop
endfacet
facet normal 0.003365 -0.003831 -0.999987
outer loop
vertex 0.956626 -3.213176 0.941645
vertex 3.038208 -1.274206 0.941218
vertex 3.200008 -1.132155 0.941218
endloop
endfacet
facet normal 0.006815 -0.005335 -0.999963
outer loop
vertex 3.200008 -1.132155 0.941218
vertex 4.056803 -0.307132 0.942655
vertex 1.777364 -3.787133 0.945688
endloop
endfacet
facet normal 0.002727 -0.003145 -0.999991
outer loop
vertex 3.200008 -1.132155 0.941218
vertex 1.777364 -3.787133 0.945688
vertex 0.956626 -3.213176 0.941645
endloop
endfacet
endsolid Exported from Blender-3.4.1
